<svg xmlns="http://www.w3.org/2000/svg" viewBox="0 0 1024 1024">
  <defs>
    <style>
      .black { fill:#191a1a; }
    </style>
  </defs>

  <g id="icon">
    <path class="black" d="M322.3 138.94l-101.24 58.45a58 58 0 01-21.23 79.23l406 703.21a58 58 0 0179.23 21.23l100.46-58a58 58 0 01100.46-58l101.24-58.45a57.99 57.99 0 0120.46-78.76L601.66 44.6a57.99 57.99 0 01-78.44-21.66l-100.46 58a58 58 0 01-100.46 58zm260.13-22.52L935.86 728.6l-310.8 179.44-353.43-612.17z"/>
    <path class="black" transform="rotate(-30 473.25 286.2)" d="M304.69 204.63h337.12v163.12H304.69z"/>
    <path class="black" transform="rotate(-30 647.25 587.57)" d="M478.69 332.01h337.12v511.12H478.69z"/>
    <path class="black" d="M541.13 967.98H128.41V742.14h25.46l-56.72-33.08h-1.83A36.5 36.5 0 0158.83 745v73a36.5 36.5 0 110 73v73.57a36.5 36.5 0 0136.5 36.5h502.52l-.2-.12z"/>
    <path class="black" d="M135.25 748.98v212.16h102.66v-170l-72.3-42.16h-30.36zM244.75 961.14H529.4l-284.65-166v166z"/>
    <path class="black" d="M557.35 917.62l-468.1-273 147.27-252.55 26.24 15.3-42.18-73.07a47.23 47.23 0 01-63.72 15.58l-47.6 81.64a47.25 47.25 0 01-47.61 81.63l-47.98 82.27a47.25 47.25 0 0117 64.62l569.83 332.3-4.09-7.07z"/>
    <path class="black" d="M239.71 404.19L101.36 641.43l114.8 66.95L326.9 518.47l-55.21-95.64-31.98-18.64zM223.8 712.84l324.62 189.31-216.41-374.84-108.2 185.53z"/>
  </g>
</svg>