<svg xmlns="http://www.w3.org/2000/svg" xmlns:xlink="http://www.w3.org/1999/xlink" viewBox="0 0 1024 1024">
  <defs>
    <style>
      .white {fill:#191a1a}
      .black {fill:#f6f8f9}
    </style>

    <symbol id="ticket-black" viewBox="0 0 1048 536">
      <path id="ticket" class="white" d="M1036 205V76a64 64 0 01-64-64H76a64 64 0 01-64 64v128a64 64 0 010 128v129a64 64 0 0164 63h896a64 64 0 0164-63V333a64 64 0 010-128zM914 466H134V70h780z"/>
      <path id="narrow" class="white" d="M722 82h180v372H722z"/>
      <path id="wide" class="white" d="M146 82h564v372H146z"/>
      <path id="outline" class="black" d="M972 12a64 64 0 0064 64v129a64 64 0 100 128v128a64 64 0 00-64 63H76a64 64 0 00-64-63V332a64 64 0 000-128V76a64 64 0 0064-64h896m12-12H64v12a52 52 0 01-52 52H0v152h12a52 52 0 010 104H0v153h12a52 52 0 0136 15 52 52 0 0116 36v12h920v-12a52 52 0 0152-51h12V321h-12a52 52 0 110-104h12V64h-12a52 52 0 01-52-52V0z"/>
      <path id="inline" class="black" d="M134 70v396h780V70zm12 12h564v372H146zm756 372H722V82h180z"/>
    </symbol>
  </defs>

  <g id="icon">
    <use width="1048" height="536" transform="rotate(180 325 504) scale(.57031)" xlink:href="#ticket-black"/>
    <use width="1048" height="536" transform="rotate(-150 462 427) scale(.73828)" xlink:href="#ticket-black"/>
    <use width="1048" height="536" transform="rotate(-120 617 340) scale(.90625)" xlink:href="#ticket-black"/>
  </g>
</svg>